<?xml version="1.0" encoding="UTF-8" standalone="no"?>
<!DOCTYPE svg PUBLIC "-//W3C//DTD SVG 1.1//EN"
 "http://www.w3.org/Graphics/SVG/1.1/DTD/svg11.dtd">
<!-- Generated by graphviz version 2.49.3 (20211027.1534)
 -->
<!-- Title: example Pages: 1 -->
<svg width="529pt" height="401pt"
 viewBox="0.00 0.00 529.24 401.27" xmlns="http://www.w3.org/2000/svg" xmlns:xlink="http://www.w3.org/1999/xlink">
<g id="graph0" class="graph" transform="scale(1 1) rotate(0) translate(4 397.27)">
<title>example</title>
<polygon fill="white" stroke="transparent" points="-4,4 -4,-397.27 525.24,-397.27 525.24,4 -4,4"/>
<!-- 3DCityDB -->
<g id="node1" class="node">
<title>3DCityDB</title>
<g id="a_node1"><a xlink:href="https://3dcitydb-docs.readthedocs.io/en/release-v4.3.0/" xlink:title="3DCityDB">
<polygon fill="none" stroke="black" points="243.84,-99.79 184.84,-99.79 184.84,-80.79 243.84,-80.79 243.84,-99.79"/>
<text text-anchor="middle" x="214.34" y="-87.79" font-family="Helvetica,sans-Serif" font-size="10.00">3DCityDB</text>
</a>
</g>
</g>
<!-- py3dTilers -->
<g id="node14" class="node">
<title>py3dTilers</title>
<g id="a_node14"><a xlink:href="https://github.com/VCityTeam/py3dtilers#readme" xlink:title="\N">
<path fill="none" stroke="black" d="M131.48,-152.93C131.48,-152.93 187.81,-152.93 187.81,-152.93 190.98,-152.93 194.15,-156.1 194.15,-159.26 194.15,-159.26 194.15,-165.6 194.15,-165.6 194.15,-168.76 190.98,-171.93 187.81,-171.93 187.81,-171.93 131.48,-171.93 131.48,-171.93 128.31,-171.93 125.15,-168.76 125.15,-165.6 125.15,-165.6 125.15,-159.26 125.15,-159.26 125.15,-156.1 128.31,-152.93 131.48,-152.93"/>
<text text-anchor="middle" x="159.65" y="-159.93" font-family="Helvetica,sans-Serif" font-size="10.00">py3dTilers</text>
</a>
</g>
</g>
<!-- 3DCityDB&#45;&gt;py3dTilers -->
<g id="edge12" class="edge">
<title>3DCityDB&#45;&gt;py3dTilers</title>
<path fill="none" stroke="black" d="M206.97,-100.02C198.27,-111.49 183.66,-130.76 172.97,-144.86"/>
<polygon fill="black" stroke="black" points="170.16,-142.77 166.91,-152.86 175.74,-147 170.16,-142.77"/>
</g>
<!-- CityGML:XMLencoding -->
<g id="node2" class="node">
<title>CityGML:XMLencoding</title>
<g id="a_node2"><a xlink:href="https://portal.ogc.org/files/?artifact_id=47842" xlink:title="CityGML:XMLencoding">
<polygon fill="none" stroke="black" points="435.89,-107.7 319.89,-107.7 319.89,-88.7 435.89,-88.7 435.89,-107.7"/>
<text text-anchor="middle" x="377.89" y="-95.7" font-family="Helvetica,sans-Serif" font-size="10.00">CityGML:XMLencoding</text>
</a>
</g>
</g>
<!-- GraphML/RDF -->
<g id="node9" class="node">
<title>GraphML/RDF</title>
<g id="a_node9"><a xlink:href="FIXME" xlink:title="GraphML/RDF">
<polygon fill="none" stroke="black" points="434.68,-19 360.68,-19 360.68,0 434.68,0 434.68,-19"/>
<text text-anchor="middle" x="397.68" y="-7" font-family="Helvetica,sans-Serif" font-size="10.00">GraphML/RDF</text>
</a>
</g>
</g>
<!-- CityGML:XMLencoding&#45;&gt;GraphML/RDF -->
<g id="edge8" class="edge">
<title>CityGML:XMLencoding&#45;&gt;GraphML/RDF</title>
<path fill="none" stroke="black" d="M380.09,-88.36C383.27,-74.1 389.23,-47.38 393.32,-29.03"/>
<polygon fill="black" stroke="black" points="396.77,-29.63 395.53,-19.11 389.94,-28.1 396.77,-29.63"/>
</g>
<!-- 3DCityDB&#45;Importer -->
<g id="node10" class="node">
<title>3DCityDB&#45;Importer</title>
<g id="a_node10"><a xlink:href="https://3dcitydb-docs.readthedocs.io/en/release-v4.3.0/impexp/index.html" xlink:title="\N">
<path fill="none" stroke="black" d="M249.48,-50.16C249.48,-50.16 342.82,-50.16 342.82,-50.16 345.98,-50.16 349.15,-53.33 349.15,-56.5 349.15,-56.5 349.15,-62.83 349.15,-62.83 349.15,-66 345.98,-69.16 342.82,-69.16 342.82,-69.16 249.48,-69.16 249.48,-69.16 246.32,-69.16 243.15,-66 243.15,-62.83 243.15,-62.83 243.15,-56.5 243.15,-56.5 243.15,-53.33 246.32,-50.16 249.48,-50.16"/>
<text text-anchor="middle" x="296.15" y="-57.16" font-family="Helvetica,sans-Serif" font-size="10.00">3DCityDB&#45;Importer</text>
</a>
</g>
</g>
<!-- CityGML:XMLencoding&#45;&gt;3DCityDB&#45;Importer -->
<g id="edge1" class="edge">
<title>CityGML:XMLencoding&#45;&gt;3DCityDB&#45;Importer</title>
<path fill="none" stroke="black" d="M357.69,-88.67C348.06,-84.13 336.35,-78.61 325.75,-73.61"/>
<polygon fill="black" stroke="black" points="326.94,-70.31 316.41,-69.21 323.96,-76.64 326.94,-70.31"/>
</g>
<!-- Da&#45;POM&#45;Ville&#45;Unity -->
<g id="node11" class="node">
<title>Da&#45;POM&#45;Ville&#45;Unity</title>
<g id="a_node11"><a xlink:href="https://github.com/VCityTeam/UD-Reproducibility/blob/master/Computations/DatAgora-Deambulation-Bron/BlenderModelingPipeline.md#anchor-convertion-CityGML-to-OBJ" xlink:title="\N">
<path fill="none" stroke="black" d="M278.19,-162.86C278.19,-162.86 376.53,-162.86 376.53,-162.86 379.69,-162.86 382.86,-166.03 382.86,-169.2 382.86,-169.2 382.86,-175.53 382.86,-175.53 382.86,-178.7 379.69,-181.86 376.53,-181.86 376.53,-181.86 278.19,-181.86 278.19,-181.86 275.03,-181.86 271.86,-178.7 271.86,-175.53 271.86,-175.53 271.86,-169.2 271.86,-169.2 271.86,-166.03 275.03,-162.86 278.19,-162.86"/>
<text text-anchor="middle" x="327.36" y="-169.86" font-family="Helvetica,sans-Serif" font-size="10.00">Da&#45;POM&#45;Ville&#45;Unity</text>
</a>
</g>
</g>
<!-- CityGML:XMLencoding&#45;&gt;Da&#45;POM&#45;Ville&#45;Unity -->
<g id="edge3" class="edge">
<title>CityGML:XMLencoding&#45;&gt;Da&#45;POM&#45;Ville&#45;Unity</title>
<path fill="none" stroke="black" d="M371.29,-107.89C363.31,-119.6 349.73,-139.53 339.78,-154.14"/>
<polygon fill="black" stroke="black" points="336.87,-152.19 334.13,-162.43 342.65,-156.14 336.87,-152.19"/>
</g>
<!-- 3DUse&#45;SplitBuildings -->
<g id="node15" class="node">
<title>3DUse&#45;SplitBuildings</title>
<g id="a_node15"><a xlink:href="https://github.com/VCityTeam/3DUSE/blob/master/src/utils/cmdline/splitCityGMLBuildings.cxx" xlink:title="\N">
<path fill="none" stroke="black" d="M397.19,-142.23C397.19,-142.23 506.53,-142.23 506.53,-142.23 509.69,-142.23 512.86,-145.4 512.86,-148.56 512.86,-148.56 512.86,-154.9 512.86,-154.9 512.86,-158.06 509.69,-161.23 506.53,-161.23 506.53,-161.23 397.19,-161.23 397.19,-161.23 394.03,-161.23 390.86,-158.06 390.86,-154.9 390.86,-154.9 390.86,-148.56 390.86,-148.56 390.86,-145.4 394.03,-142.23 397.19,-142.23"/>
<text text-anchor="middle" x="451.86" y="-149.23" font-family="Helvetica,sans-Serif" font-size="10.00">3DUse&#45;SplitBuildings</text>
</a>
</g>
</g>
<!-- CityGML:XMLencoding&#45;&gt;3DUse&#45;SplitBuildings -->
<g id="edge5" class="edge">
<title>CityGML:XMLencoding&#45;&gt;3DUse&#45;SplitBuildings</title>
<path fill="none" stroke="black" d="M391.12,-107.77C401.92,-115.59 417.42,-126.8 430.05,-135.95"/>
<polygon fill="black" stroke="black" points="428.1,-138.85 438.25,-141.88 432.2,-133.18 428.1,-138.85"/>
</g>
<!-- 3DUse&#45;ChangeDetection -->
<g id="node16" class="node">
<title>3DUse&#45;ChangeDetection</title>
<g id="a_node16"><a xlink:href="https://github.com/VCityTeam/3DUSE/blob/master/src/utils/cmdline/extractBuildingsConstructionDemolitionDates.cxx" xlink:title="\N">
<path fill="none" stroke="black" d="M400.58,-60.48C400.58,-60.48 514.91,-60.48 514.91,-60.48 518.08,-60.48 521.24,-63.65 521.24,-66.81 521.24,-66.81 521.24,-73.15 521.24,-73.15 521.24,-76.31 518.08,-79.48 514.91,-79.48 514.91,-79.48 400.58,-79.48 400.58,-79.48 397.41,-79.48 394.24,-76.31 394.24,-73.15 394.24,-73.15 394.24,-66.81 394.24,-66.81 394.24,-63.65 397.41,-60.48 400.58,-60.48"/>
<text text-anchor="middle" x="457.74" y="-67.48" font-family="Helvetica,sans-Serif" font-size="10.00">3DUse&#45;ChangeDetection</text>
</a>
</g>
</g>
<!-- CityGML:XMLencoding&#45;&gt;3DUse&#45;ChangeDetection -->
<g id="edge7" class="edge">
<title>CityGML:XMLencoding&#45;&gt;3DUse&#45;ChangeDetection</title>
<path fill="none" stroke="black" d="M404.93,-88.64C410.13,-86.8 415.66,-84.85 421.11,-82.92"/>
<polygon fill="black" stroke="black" points="422.48,-86.15 430.74,-79.52 420.14,-79.55 422.48,-86.15"/>
</g>
<!-- OBJ -->
<g id="node3" class="node">
<title>OBJ</title>
<g id="a_node3"><a xlink:href="https://en.wikipedia.org/wiki/Wavefront_.obj_file" xlink:title="OBJ">
<polygon fill="none" stroke="black" points="261.38,-216.34 225.38,-216.34 225.38,-197.34 261.38,-197.34 261.38,-216.34"/>
<text text-anchor="middle" x="243.38" y="-204.34" font-family="Helvetica,sans-Serif" font-size="10.00">OBJ</text>
</a>
</g>
</g>
<!-- Blender -->
<g id="node12" class="node">
<title>Blender</title>
<g id="a_node12"><a xlink:href="https://en.wikipedia.org/wiki/Blender_(software)" xlink:title="\N">
<path fill="none" stroke="black" d="M226.22,-288.11C226.22,-288.11 266.56,-288.11 266.56,-288.11 269.72,-288.11 272.89,-291.28 272.89,-294.45 272.89,-294.45 272.89,-300.78 272.89,-300.78 272.89,-303.95 269.72,-307.11 266.56,-307.11 266.56,-307.11 226.22,-307.11 226.22,-307.11 223.06,-307.11 219.89,-303.95 219.89,-300.78 219.89,-300.78 219.89,-294.45 219.89,-294.45 219.89,-291.28 223.06,-288.11 226.22,-288.11"/>
<text text-anchor="middle" x="246.39" y="-295.11" font-family="Helvetica,sans-Serif" font-size="10.00">Blender</text>
</a>
</g>
</g>
<!-- OBJ&#45;&gt;Blender -->
<g id="edge19" class="edge">
<title>OBJ&#45;&gt;Blender</title>
<path fill="none" stroke="black" d="M243.7,-216.55C244.18,-231.09 245.1,-258.81 245.73,-277.75"/>
<polygon fill="black" stroke="black" points="242.24,-278.09 246.07,-287.97 249.24,-277.86 242.24,-278.09"/>
</g>
<!-- OBJ&#45;&gt;py3dTilers -->
<g id="edge13" class="edge">
<title>OBJ&#45;&gt;py3dTilers</title>
<path fill="none" stroke="black" d="M225.21,-197.2C214.02,-191.27 199.46,-183.54 186.9,-176.89"/>
<polygon fill="black" stroke="black" points="188.25,-173.64 177.78,-172.05 184.97,-179.83 188.25,-173.64"/>
</g>
<!-- GLB -->
<g id="node4" class="node">
<title>GLB</title>
<g id="a_node4"><a xlink:href="https://en.wikipedia.org/wiki/GlTF#GLB" xlink:title="GLB">
<polygon fill="none" stroke="black" points="206.07,-370.61 170.07,-370.61 170.07,-351.61 206.07,-351.61 206.07,-370.61"/>
<text text-anchor="middle" x="188.07" y="-358.61" font-family="Helvetica,sans-Serif" font-size="10.00">GLB</text>
</a>
</g>
</g>
<!-- UD&#45;Viz -->
<g id="node13" class="node">
<title>UD&#45;Viz</title>
<g id="a_node13"><a xlink:href="https://github.com/VCityTeam/UD-Viz#readme" xlink:title="\N">
<path fill="none" stroke="black" d="M87.01,-318.59C87.01,-318.59 122.35,-318.59 122.35,-318.59 125.51,-318.59 128.68,-321.76 128.68,-324.93 128.68,-324.93 128.68,-331.26 128.68,-331.26 128.68,-334.43 125.51,-337.59 122.35,-337.59 122.35,-337.59 87.01,-337.59 87.01,-337.59 83.85,-337.59 80.68,-334.43 80.68,-331.26 80.68,-331.26 80.68,-324.93 80.68,-324.93 80.68,-321.76 83.85,-318.59 87.01,-318.59"/>
<text text-anchor="middle" x="104.68" y="-325.59" font-family="Helvetica,sans-Serif" font-size="10.00">UD&#45;Viz</text>
</a>
</g>
</g>
<!-- GLB&#45;&gt;UD&#45;Viz -->
<g id="edge9" class="edge">
<title>GLB&#45;&gt;UD&#45;Viz</title>
<path fill="none" stroke="black" d="M169.98,-353.95C160.73,-350.29 149.18,-345.72 138.38,-341.44"/>
<polygon fill="black" stroke="black" points="139.34,-338.05 128.75,-337.63 136.76,-344.56 139.34,-338.05"/>
</g>
<!-- Visualization -->
<g id="node5" class="node">
<title>Visualization</title>
<g id="a_node5"><a xlink:href="https://en.wikipedia.org/wiki/Visualization_(graphics)" xlink:title="Visualization">
<polygon fill="none" stroke="black" points="85,-393.27 0,-393.27 0,-374.27 85,-374.27 85,-393.27"/>
<text text-anchor="middle" x="42.5" y="-381.27" font-family="Helvetica,sans-Serif" font-size="10.00">Visualization</text>
</a>
</g>
</g>
<!-- 3dTiles -->
<g id="node6" class="node">
<title>3dTiles</title>
<g id="a_node6"><a xlink:href="https://github.com/CesiumGS/3d-tiles#readme" xlink:title="3dTiles">
<polygon fill="none" stroke="black" points="136.88,-249.56 83.88,-249.56 83.88,-230.56 136.88,-230.56 136.88,-249.56"/>
<text text-anchor="middle" x="110.38" y="-237.56" font-family="Helvetica,sans-Serif" font-size="10.00">3dTiles</text>
</a>
</g>
</g>
<!-- 3dTiles&#45;&gt;UD&#45;Viz -->
<g id="edge11" class="edge">
<title>3dTiles&#45;&gt;UD&#45;Viz</title>
<path fill="none" stroke="black" d="M109.75,-249.82C108.84,-263.91 107.13,-290.25 105.95,-308.46"/>
<polygon fill="black" stroke="black" points="102.45,-308.35 105.3,-318.56 109.44,-308.81 102.45,-308.35"/>
</g>
<!-- IFC -->
<g id="node7" class="node">
<title>IFC</title>
<g id="a_node7"><a xlink:href="https://en.wikipedia.org/wiki/Industry_Foundation_Classes" xlink:title="IFC">
<polygon fill="none" stroke="black" points="93.4,-148.46 57.4,-148.46 57.4,-129.46 93.4,-129.46 93.4,-148.46"/>
<text text-anchor="middle" x="75.4" y="-136.46" font-family="Helvetica,sans-Serif" font-size="10.00">IFC</text>
</a>
</g>
</g>
<!-- IFC&#45;&gt;py3dTilers -->
<g id="edge14" class="edge">
<title>IFC&#45;&gt;py3dTilers</title>
<path fill="none" stroke="black" d="M93.68,-144.06C100.21,-145.88 107.89,-148.01 115.65,-150.18"/>
<polygon fill="black" stroke="black" points="114.87,-153.59 125.44,-152.9 116.75,-146.85 114.87,-153.59"/>
</g>
<!-- GeoJSON -->
<g id="node8" class="node">
<title>GeoJSON</title>
<g id="a_node8"><a xlink:href="https://en.wikipedia.org/wiki/GeoJSON" xlink:title="GeoJSON">
<polygon fill="none" stroke="black" points="132.86,-99.1 79.86,-99.1 79.86,-80.1 132.86,-80.1 132.86,-99.1"/>
<text text-anchor="middle" x="106.36" y="-87.1" font-family="Helvetica,sans-Serif" font-size="10.00">GeoJSON</text>
</a>
</g>
</g>
<!-- GeoJSON&#45;&gt;IFC -->
<!-- GeoJSON&#45;&gt;py3dTilers -->
<g id="edge15" class="edge">
<title>GeoJSON&#45;&gt;py3dTilers</title>
<path fill="none" stroke="black" d="M113.33,-99.12C121.74,-110.61 136.06,-130.19 146.55,-144.54"/>
<polygon fill="black" stroke="black" points="143.78,-146.67 152.51,-152.67 149.43,-142.54 143.78,-146.67"/>
</g>
<!-- 3DCityDB&#45;Importer&#45;&gt;3DCityDB -->
<g id="edge2" class="edge">
<title>3DCityDB&#45;Importer&#45;&gt;3DCityDB</title>
<path fill="none" stroke="black" d="M270.71,-69.19C263.94,-71.72 256.51,-74.5 249.32,-77.19"/>
<polygon fill="black" stroke="black" points="247.9,-73.99 239.76,-80.77 250.36,-80.54 247.9,-73.99"/>
</g>
<!-- Da&#45;POM&#45;Ville&#45;Unity&#45;&gt;OBJ -->
<g id="edge4" class="edge">
<title>Da&#45;POM&#45;Ville&#45;Unity&#45;&gt;OBJ</title>
<path fill="none" stroke="black" d="M303.97,-181.97C293.71,-186.18 281.6,-191.15 270.91,-195.53"/>
<polygon fill="black" stroke="black" points="269.51,-192.32 261.59,-199.36 272.17,-198.8 269.51,-192.32"/>
</g>
<!-- Blender&#45;&gt;OBJ -->
<g id="edge18" class="edge">
<title>Blender&#45;&gt;OBJ</title>
<path fill="none" stroke="black" d="M246.07,-287.9C245.59,-273.36 244.67,-245.63 244.04,-226.7"/>
<polygon fill="black" stroke="black" points="247.53,-226.36 243.7,-216.48 240.53,-226.59 247.53,-226.36"/>
</g>
<!-- Blender&#45;&gt;GLB -->
<g id="edge20" class="edge">
<title>Blender&#45;&gt;GLB</title>
<path fill="none" stroke="black" d="M237.53,-307.26C228.63,-316.95 214.7,-332.11 203.9,-343.88"/>
<polygon fill="black" stroke="black" points="201.2,-341.65 197.01,-351.38 206.35,-346.38 201.2,-341.65"/>
</g>
<!-- UD&#45;Viz&#45;&gt;Visualization -->
<g id="edge10" class="edge">
<title>UD&#45;Viz&#45;&gt;Visualization</title>
<path fill="none" stroke="black" d="M93.85,-337.79C84.75,-345.93 71.56,-357.75 60.83,-367.36"/>
<polygon fill="black" stroke="black" points="58.32,-364.91 53.21,-374.18 62.99,-370.12 58.32,-364.91"/>
</g>
<!-- py3dTilers&#45;&gt;3dTiles -->
<g id="edge17" class="edge">
<title>py3dTilers&#45;&gt;3dTiles</title>
<path fill="none" stroke="black" d="M153.61,-171.95C145.78,-184.29 131.95,-206.07 122.05,-221.68"/>
<polygon fill="black" stroke="black" points="118.88,-220.15 116.47,-230.47 124.79,-223.9 118.88,-220.15"/>
</g>
<!-- 3DUse&#45;SplitBuildings&#45;&gt;CityGML:XMLencoding -->
<g id="edge6" class="edge">
<title>3DUse&#45;SplitBuildings&#45;&gt;CityGML:XMLencoding</title>
<path fill="none" stroke="black" d="M438.64,-142.16C427.83,-134.34 412.34,-123.12 399.7,-113.98"/>
<polygon fill="black" stroke="black" points="401.66,-111.07 391.5,-108.05 397.55,-116.74 401.66,-111.07"/>
</g>
</g>
</svg>
