<?xml version="1.0" encoding="UTF-8" standalone="no"?>
<!DOCTYPE svg PUBLIC "-//W3C//DTD SVG 1.1//EN"
 "http://www.w3.org/Graphics/SVG/1.1/DTD/svg11.dtd">
<!-- Generated by graphviz version 2.49.3 (20211027.1534)
 -->
<!-- Title: example Pages: 1 -->
<svg width="305pt" height="455pt"
 viewBox="0.00 0.00 304.94 454.57" xmlns="http://www.w3.org/2000/svg" xmlns:xlink="http://www.w3.org/1999/xlink">
<g id="graph0" class="graph" transform="scale(1 1) rotate(0) translate(4 450.57)">
<title>example</title>
<polygon fill="white" stroke="transparent" points="-4,4 -4,-450.57 300.94,-450.57 300.94,4 -4,4"/>
<!-- 3DCityDB -->
<g id="node1" class="node">
<title>3DCityDB</title>
<g id="a_node1"><a xlink:href="https://3dcitydb-docs.readthedocs.io/en/release-v4.3.0/" xlink:title="3DCityDB">
<polygon fill="none" stroke="black" points="223.46,-51.18 164.46,-51.18 164.46,-32.18 223.46,-32.18 223.46,-51.18"/>
<text text-anchor="middle" x="193.96" y="-39.18" font-family="Helvetica,sans-Serif" font-size="10.00">3DCityDB</text>
</a>
</g>
</g>
<!-- 3DCityDB&#45;Exporter -->
<g id="node10" class="node">
<title>3DCityDB&#45;Exporter</title>
<g id="a_node10"><a xlink:href="https://3dcitydb-docs.readthedocs.io/en/release-v4.3.0/impexp/index.html" xlink:title="\N">
<path fill="none" stroke="black" d="M72.89,-0.5C72.89,-0.5 166.22,-0.5 166.22,-0.5 169.39,-0.5 172.56,-3.67 172.56,-6.83 172.56,-6.83 172.56,-13.17 172.56,-13.17 172.56,-16.33 169.39,-19.5 166.22,-19.5 166.22,-19.5 72.89,-19.5 72.89,-19.5 69.72,-19.5 66.56,-16.33 66.56,-13.17 66.56,-13.17 66.56,-6.83 66.56,-6.83 66.56,-3.67 69.72,-0.5 72.89,-0.5"/>
<text text-anchor="middle" x="119.56" y="-7.5" font-family="Helvetica,sans-Serif" font-size="10.00">3DCityDB&#45;Exporter</text>
</a>
</g>
</g>
<!-- 3DCityDB&#45;&gt;3DCityDB&#45;Exporter -->
<g id="edge3" class="edge">
<title>3DCityDB&#45;&gt;3DCityDB&#45;Exporter</title>
<path fill="none" stroke="black" d="M171.64,-32.18C165.37,-29.51 158.42,-26.55 151.7,-23.69"/>
<polygon fill="black" stroke="black" points="152.69,-20.31 142.12,-19.61 149.95,-26.75 152.69,-20.31"/>
</g>
<!-- CityGML:XMLencoding -->
<g id="node2" class="node">
<title>CityGML:XMLencoding</title>
<g id="a_node2"><a xlink:href="https://portal.ogc.org/files/?artifact_id=47842" xlink:title="CityGML:XMLencoding">
<polygon fill="none" stroke="black" points="159.33,-95.81 43.33,-95.81 43.33,-76.81 159.33,-76.81 159.33,-95.81"/>
<text text-anchor="middle" x="101.33" y="-83.81" font-family="Helvetica,sans-Serif" font-size="10.00">CityGML:XMLencoding</text>
</a>
</g>
</g>
<!-- 3DCityDB&#45;Importer -->
<g id="node9" class="node">
<title>3DCityDB&#45;Importer</title>
<g id="a_node9"><a xlink:href="https://3dcitydb-docs.readthedocs.io/en/release-v4.3.0/impexp/index.html" xlink:title="\N">
<path fill="none" stroke="black" d="M130.18,-112.07C130.18,-112.07 223.51,-112.07 223.51,-112.07 226.68,-112.07 229.84,-115.23 229.84,-118.4 229.84,-118.4 229.84,-124.73 229.84,-124.73 229.84,-127.9 226.68,-131.07 223.51,-131.07 223.51,-131.07 130.18,-131.07 130.18,-131.07 127.01,-131.07 123.84,-127.9 123.84,-124.73 123.84,-124.73 123.84,-118.4 123.84,-118.4 123.84,-115.23 127.01,-112.07 130.18,-112.07"/>
<text text-anchor="middle" x="176.84" y="-119.07" font-family="Helvetica,sans-Serif" font-size="10.00">3DCityDB&#45;Importer</text>
</a>
</g>
</g>
<!-- CityGML:XMLencoding&#45;&gt;3DCityDB&#45;Importer -->
<g id="edge1" class="edge">
<title>CityGML:XMLencoding&#45;&gt;3DCityDB&#45;Importer</title>
<path fill="none" stroke="black" d="M121.96,-95.94C129.77,-99.59 138.81,-103.81 147.28,-107.76"/>
<polygon fill="black" stroke="black" points="145.95,-111.01 156.49,-112.07 148.91,-104.67 145.95,-111.01"/>
</g>
<!-- Da&#45;POM&#45;Ville&#45;Unity -->
<g id="node11" class="node">
<title>Da&#45;POM&#45;Ville&#45;Unity</title>
<g id="a_node11"><a xlink:href="https://github.com/VCityTeam/UD-Reproducibility/blob/master/Computations/DatAgora-Deambulation-Bron/BlenderModelingPipeline.md#anchor-convertion-CityGML-to-OBJ" xlink:title="\N">
<path fill="none" stroke="black" d="M6.33,-137.31C6.33,-137.31 104.67,-137.31 104.67,-137.31 107.83,-137.31 111,-140.48 111,-143.65 111,-143.65 111,-149.98 111,-149.98 111,-153.15 107.83,-156.31 104.67,-156.31 104.67,-156.31 6.33,-156.31 6.33,-156.31 3.17,-156.31 0,-153.15 0,-149.98 0,-149.98 0,-143.65 0,-143.65 0,-140.48 3.17,-137.31 6.33,-137.31"/>
<text text-anchor="middle" x="55.5" y="-144.31" font-family="Helvetica,sans-Serif" font-size="10.00">Da&#45;POM&#45;Ville&#45;Unity</text>
</a>
</g>
</g>
<!-- CityGML:XMLencoding&#45;&gt;Da&#45;POM&#45;Ville&#45;Unity -->
<g id="edge5" class="edge">
<title>CityGML:XMLencoding&#45;&gt;Da&#45;POM&#45;Ville&#45;Unity</title>
<path fill="none" stroke="black" d="M93.96,-96.03C87.32,-104.8 77.38,-117.93 69.27,-128.64"/>
<polygon fill="black" stroke="black" points="66.24,-126.83 63,-136.92 71.82,-131.06 66.24,-126.83"/>
</g>
<!-- OBJ -->
<g id="node3" class="node">
<title>OBJ</title>
<g id="a_node3"><a xlink:href="https://en.wikipedia.org/wiki/Wavefront_.obj_file" xlink:title="OBJ">
<polygon fill="none" stroke="black" points="122.75,-222.58 86.75,-222.58 86.75,-203.58 122.75,-203.58 122.75,-222.58"/>
<text text-anchor="middle" x="104.75" y="-210.58" font-family="Helvetica,sans-Serif" font-size="10.00">OBJ</text>
</a>
</g>
</g>
<!-- Blender -->
<g id="node12" class="node">
<title>Blender</title>
<g id="a_node12"><a xlink:href="https://en.wikipedia.org/wiki/Blender_(software)" xlink:title="\N">
<path fill="none" stroke="black" d="M35.15,-270.68C35.15,-270.68 75.48,-270.68 75.48,-270.68 78.65,-270.68 81.82,-273.85 81.82,-277.01 81.82,-277.01 81.82,-283.35 81.82,-283.35 81.82,-286.51 78.65,-289.68 75.48,-289.68 75.48,-289.68 35.15,-289.68 35.15,-289.68 31.98,-289.68 28.82,-286.51 28.82,-283.35 28.82,-283.35 28.82,-277.01 28.82,-277.01 28.82,-273.85 31.98,-270.68 35.15,-270.68"/>
<text text-anchor="middle" x="55.32" y="-277.68" font-family="Helvetica,sans-Serif" font-size="10.00">Blender</text>
</a>
</g>
</g>
<!-- OBJ&#45;&gt;Blender -->
<g id="edge8" class="edge">
<title>OBJ&#45;&gt;Blender</title>
<path fill="none" stroke="black" d="M97.67,-222.7C90.03,-233.06 77.71,-249.78 68.32,-262.53"/>
<polygon fill="black" stroke="black" points="65.5,-260.46 62.39,-270.59 71.14,-264.61 65.5,-260.46"/>
</g>
<!-- py3dTilers -->
<g id="node14" class="node">
<title>py3dTilers</title>
<g id="a_node14"><a xlink:href="https://github.com/VCityTeam/py3dtilers#readme" xlink:title="\N">
<path fill="none" stroke="black" d="M163.34,-196.29C163.34,-196.29 219.67,-196.29 219.67,-196.29 222.84,-196.29 226.01,-199.45 226.01,-202.62 226.01,-202.62 226.01,-208.95 226.01,-208.95 226.01,-212.12 222.84,-215.29 219.67,-215.29 219.67,-215.29 163.34,-215.29 163.34,-215.29 160.17,-215.29 157.01,-212.12 157.01,-208.95 157.01,-208.95 157.01,-202.62 157.01,-202.62 157.01,-199.45 160.17,-196.29 163.34,-196.29"/>
<text text-anchor="middle" x="191.51" y="-203.29" font-family="Helvetica,sans-Serif" font-size="10.00">py3dTilers</text>
</a>
</g>
</g>
<!-- OBJ&#45;&gt;py3dTilers -->
<g id="edge13" class="edge">
<title>OBJ&#45;&gt;py3dTilers</title>
<path fill="none" stroke="black" d="M123.15,-211.54C130.08,-210.95 138.3,-210.26 146.6,-209.56"/>
<polygon fill="black" stroke="black" points="147,-213.04 156.67,-208.72 146.41,-206.07 147,-213.04"/>
</g>
<!-- GLB -->
<g id="node4" class="node">
<title>GLB</title>
<g id="a_node4"><a xlink:href="https://en.wikipedia.org/wiki/GlTF#GLB" xlink:title="GLB">
<polygon fill="none" stroke="black" points="91.91,-367.92 55.91,-367.92 55.91,-348.92 91.91,-348.92 91.91,-367.92"/>
<text text-anchor="middle" x="73.91" y="-355.92" font-family="Helvetica,sans-Serif" font-size="10.00">GLB</text>
</a>
</g>
</g>
<!-- UD&#45;Viz -->
<g id="node13" class="node">
<title>UD&#45;Viz</title>
<g id="a_node13"><a xlink:href="https://github.com/VCityTeam/UD-Viz#readme" xlink:title="\N">
<path fill="none" stroke="black" d="M139.26,-354.81C139.26,-354.81 174.59,-354.81 174.59,-354.81 177.76,-354.81 180.93,-357.98 180.93,-361.15 180.93,-361.15 180.93,-367.48 180.93,-367.48 180.93,-370.65 177.76,-373.81 174.59,-373.81 174.59,-373.81 139.26,-373.81 139.26,-373.81 136.09,-373.81 132.93,-370.65 132.93,-367.48 132.93,-367.48 132.93,-361.15 132.93,-361.15 132.93,-357.98 136.09,-354.81 139.26,-354.81"/>
<text text-anchor="middle" x="156.93" y="-361.81" font-family="Helvetica,sans-Serif" font-size="10.00">UD&#45;Viz</text>
</a>
</g>
</g>
<!-- GLB&#45;&gt;UD&#45;Viz -->
<g id="edge10" class="edge">
<title>GLB&#45;&gt;UD&#45;Viz</title>
<path fill="none" stroke="black" d="M91.92,-359.7C100.86,-360.33 111.97,-361.12 122.47,-361.87"/>
<polygon fill="black" stroke="black" points="122.42,-365.37 132.65,-362.59 122.92,-358.39 122.42,-365.37"/>
</g>
<!-- Visualization -->
<g id="node5" class="node">
<title>Visualization</title>
<g id="a_node5"><a xlink:href="https://en.wikipedia.org/wiki/Visualization_(graphics)" xlink:title="Visualization">
<polygon fill="none" stroke="black" points="227.9,-446.57 142.9,-446.57 142.9,-427.57 227.9,-427.57 227.9,-446.57"/>
<text text-anchor="middle" x="185.4" y="-434.57" font-family="Helvetica,sans-Serif" font-size="10.00">Visualization</text>
</a>
</g>
</g>
<!-- 3dTiles -->
<g id="node6" class="node">
<title>3dTiles</title>
<g id="a_node6"><a xlink:href="https://github.com/CesiumGS/3d-tiles#readme" xlink:title="3dTiles">
<polygon fill="none" stroke="black" points="220.29,-300.21 167.29,-300.21 167.29,-281.21 220.29,-281.21 220.29,-300.21"/>
<text text-anchor="middle" x="193.79" y="-288.21" font-family="Helvetica,sans-Serif" font-size="10.00">3dTiles</text>
</a>
</g>
</g>
<!-- 3dTiles&#45;&gt;UD&#45;Viz -->
<g id="edge18" class="edge">
<title>3dTiles&#45;&gt;UD&#45;Viz</title>
<path fill="none" stroke="black" d="M188.97,-300.33C183.26,-311.73 173.62,-330.99 166.4,-345.4"/>
<polygon fill="black" stroke="black" points="163.21,-343.94 161.86,-354.45 169.47,-347.08 163.21,-343.94"/>
</g>
<!-- IFC -->
<g id="node7" class="node">
<title>IFC</title>
<g id="a_node7"><a xlink:href="https://en.wikipedia.org/wiki/Industry_Foundation_Classes" xlink:title="IFC">
<polygon fill="none" stroke="black" points="286.89,-185.92 250.89,-185.92 250.89,-166.92 286.89,-166.92 286.89,-185.92"/>
<text text-anchor="middle" x="268.89" y="-173.92" font-family="Helvetica,sans-Serif" font-size="10.00">IFC</text>
</a>
</g>
</g>
<!-- IFC&#45;&gt;py3dTilers -->
<g id="edge14" class="edge">
<title>IFC&#45;&gt;py3dTilers</title>
<path fill="none" stroke="black" d="M250.55,-183.38C243.29,-186.13 234.69,-189.39 226.34,-192.57"/>
<polygon fill="black" stroke="black" points="224.84,-189.39 216.74,-196.21 227.33,-195.93 224.84,-189.39"/>
</g>
<!-- GeoJSON -->
<g id="node8" class="node">
<title>GeoJSON</title>
<g id="a_node8"><a xlink:href="https://en.wikipedia.org/wiki/GeoJSON" xlink:title="GeoJSON">
<polygon fill="none" stroke="black" points="296.94,-239.65 243.94,-239.65 243.94,-220.65 296.94,-220.65 296.94,-239.65"/>
<text text-anchor="middle" x="270.44" y="-227.65" font-family="Helvetica,sans-Serif" font-size="10.00">GeoJSON</text>
</a>
</g>
</g>
<!-- GeoJSON&#45;&gt;IFC -->
<!-- GeoJSON&#45;&gt;py3dTilers -->
<g id="edge15" class="edge">
<title>GeoJSON&#45;&gt;py3dTilers</title>
<path fill="none" stroke="black" d="M243.72,-221.9C239.95,-220.74 236.01,-219.52 232.05,-218.3"/>
<polygon fill="black" stroke="black" points="232.87,-214.89 222.28,-215.29 230.81,-221.58 232.87,-214.89"/>
</g>
<!-- 3DCityDB&#45;Importer&#45;&gt;3DCityDB -->
<g id="edge2" class="edge">
<title>3DCityDB&#45;Importer&#45;&gt;3DCityDB</title>
<path fill="none" stroke="black" d="M178.94,-111.77C181.61,-99.32 186.28,-77.51 189.71,-61.51"/>
<polygon fill="black" stroke="black" points="193.17,-62.07 191.84,-51.56 186.33,-60.6 193.17,-62.07"/>
</g>
<!-- 3DCityDB&#45;Importer&#45;&gt;py3dTilers -->
<g id="edge12" class="edge">
<title>3DCityDB&#45;Importer&#45;&gt;py3dTilers</title>
<path fill="none" stroke="black" d="M178.52,-131.23C180.84,-144.55 185.08,-168.88 188.08,-186.12"/>
<polygon fill="black" stroke="black" points="184.68,-186.99 189.84,-196.24 191.58,-185.79 184.68,-186.99"/>
</g>
<!-- 3DCityDB&#45;Exporter&#45;&gt;CityGML:XMLencoding -->
<g id="edge4" class="edge">
<title>3DCityDB&#45;Exporter&#45;&gt;CityGML:XMLencoding</title>
<path fill="none" stroke="black" d="M117.25,-19.66C114.44,-31.41 109.64,-51.53 106.04,-66.6"/>
<polygon fill="black" stroke="black" points="102.59,-65.94 103.68,-76.48 109.4,-67.57 102.59,-65.94"/>
</g>
<!-- Da&#45;POM&#45;Ville&#45;Unity&#45;&gt;OBJ -->
<g id="edge6" class="edge">
<title>Da&#45;POM&#45;Ville&#45;Unity&#45;&gt;OBJ</title>
<path fill="none" stroke="black" d="M62.77,-156.59C70.26,-166.67 82.12,-182.63 91.32,-195.01"/>
<polygon fill="black" stroke="black" points="88.68,-197.33 97.46,-203.26 94.3,-193.15 88.68,-197.33"/>
</g>
<!-- Blender&#45;&gt;OBJ -->
<g id="edge7" class="edge">
<title>Blender&#45;&gt;OBJ</title>
<path fill="none" stroke="black" d="M62.4,-270.57C70.03,-260.2 82.36,-243.48 91.74,-230.74"/>
<polygon fill="black" stroke="black" points="94.57,-232.81 97.68,-222.68 88.93,-228.65 94.57,-232.81"/>
</g>
<!-- Blender&#45;&gt;GLB -->
<g id="edge9" class="edge">
<title>Blender&#45;&gt;GLB</title>
<path fill="none" stroke="black" d="M57.6,-289.78C60.49,-301.98 65.57,-323.34 69.29,-339"/>
<polygon fill="black" stroke="black" points="65.89,-339.83 71.61,-348.75 72.7,-338.21 65.89,-339.83"/>
</g>
<!-- UD&#45;Viz&#45;&gt;Visualization -->
<g id="edge11" class="edge">
<title>UD&#45;Viz&#45;&gt;Visualization</title>
<path fill="none" stroke="black" d="M160.65,-373.82C165.01,-384.98 172.36,-403.76 177.92,-417.96"/>
<polygon fill="black" stroke="black" points="174.68,-419.28 181.58,-427.32 181.2,-416.73 174.68,-419.28"/>
</g>
<!-- py3dTilers&#45;&gt;3dTiles -->
<g id="edge17" class="edge">
<title>py3dTilers&#45;&gt;3dTiles</title>
<path fill="none" stroke="black" d="M191.77,-215.53C192.13,-228.97 192.79,-253.5 193.25,-270.88"/>
<polygon fill="black" stroke="black" points="189.76,-271.18 193.53,-281.08 196.76,-270.99 189.76,-271.18"/>
</g>
</g>
</svg>
